<?xml version="1.0" encoding="UTF-8"?>
<svg xmlns="http://www.w3.org/2000/svg" xmlns:xlink="http://www.w3.org/1999/xlink" viewBox="0 0 64 64" width="64px" height="64px">
<g id="surface16421329">
<path style=" stroke:none;fill-rule:nonzero;fill:rgb(100%,100%,100%);fill-opacity:1;" d="M 16.835938 4.726562 C 16.628906 4.722656 16.421875 4.75 16.210938 4.8125 L 16.082031 4.851562 C 16.082031 4.851562 16.082031 4.851562 16.078125 4.851562 C 9.5 6.875 5 12.96875 5 19.855469 L 5 20.566406 C 5 26.019531 8.457031 32.3125 13 35.445312 L 13 48 C 13 55.71875 19.28125 62 27 62 L 37 62 C 44.71875 62 51 55.71875 51 48 L 51 35.445312 C 55.542969 32.3125 59 26.019531 59 20.566406 L 59 19.855469 C 59 12.96875 54.5 6.875 47.917969 4.851562 L 47.789062 4.8125 L 47.785156 4.8125 C 46.957031 4.558594 46.09375 4.894531 45.625 5.492188 C 45.160156 6.085938 45.039062 7.007812 45.484375 7.753906 L 46.652344 9.699219 L 45.59375 10.402344 C 44.492188 11.136719 44.417969 12.789062 45.445312 13.621094 C 45.714844 13.835938 45.976562 14.066406 46.007812 14.101562 C 47.816406 15.941406 48.4375 18.460938 48.085938 21.09375 C 47.757812 23.566406 46.480469 26.042969 44.613281 27.964844 C 43.648438 27.65625 38.289062 26 32 26 C 25.574219 26 20.339844 27.574219 19.386719 27.871094 C 17.519531 25.953125 16.242188 23.488281 15.910156 21.039062 C 15.5625 18.429688 16.183594 15.9375 17.988281 14.101562 C 18.023438 14.066406 18.285156 13.835938 18.550781 13.621094 C 19.582031 12.789062 19.507812 11.132812 18.40625 10.402344 L 17.347656 9.699219 L 18.511719 7.753906 C 18.960938 7.007812 18.839844 6.085938 18.375 5.492188 C 18.027344 5.042969 17.453125 4.742188 16.835938 4.726562 Z M 16.796875 6.726562 L 15.144531 9.488281 C 14.867188 9.945312 15 10.535156 15.445312 10.832031 L 17.296875 12.066406 C 17.007812 12.296875 16.769531 12.488281 16.566406 12.695312 C 14.277344 15.023438 13.515625 18.207031 13.929688 21.304688 C 14.34375 24.398438 15.902344 27.449219 18.316406 29.726562 C 18.582031 29.976562 18.960938 30.0625 19.3125 29.953125 C 19.3125 29.953125 25.351562 28 32.003906 28 C 38.457031 28 44.683594 30.046875 44.683594 30.046875 C 45.03125 30.160156 45.417969 30.074219 45.683594 29.824219 C 48.097656 27.542969 49.65625 24.46875 50.070312 21.355469 C 50.484375 18.242188 49.726562 15.03125 47.433594 12.699219 C 47.230469 12.488281 46.992188 12.296875 46.703125 12.066406 L 48.554688 10.832031 C 49 10.535156 49.132812 9.945312 48.855469 9.488281 L 47.203125 6.726562 L 47.332031 6.765625 C 53.082031 8.535156 57 13.839844 57 19.855469 L 57 20.566406 C 57 25.292969 53.476562 31.648438 49.46875 34.152344 C 49.179688 34.335938 49 34.65625 49 35 L 49 48 C 49 54.640625 43.640625 60 37 60 L 27 60 C 20.359375 60 15 54.640625 15 48 L 15 35 C 15 34.65625 14.820312 34.335938 14.53125 34.152344 C 10.523438 31.648438 7 25.292969 7 20.5625 L 7 19.851562 C 7 13.839844 10.917969 8.535156 16.667969 6.761719 Z M 31.949219 18.988281 C 31.394531 19.003906 30.957031 19.460938 30.972656 20.011719 L 30.988281 22.011719 C 30.988281 22.371094 31.179688 22.703125 31.492188 22.882812 C 31.804688 23.0625 32.1875 23.058594 32.5 22.875 C 32.808594 22.691406 32.996094 22.355469 32.988281 21.996094 L 32.972656 19.996094 C 32.972656 19.726562 32.863281 19.464844 32.671875 19.277344 C 32.480469 19.085938 32.21875 18.984375 31.949219 18.988281 Z M 37.074219 19.136719 C 36.5625 19.160156 36.152344 19.570312 36.125 20.082031 L 35.992188 22.078125 C 35.953125 22.441406 36.117188 22.800781 36.417969 23.007812 C 36.722656 23.214844 37.113281 23.242188 37.441406 23.078125 C 37.765625 22.910156 37.976562 22.578125 37.984375 22.210938 L 38.117188 20.214844 C 38.140625 19.929688 38.039062 19.644531 37.839844 19.441406 C 37.640625 19.234375 37.359375 19.121094 37.074219 19.136719 Z M 26.816406 19.230469 C 26.535156 19.230469 26.265625 19.347656 26.078125 19.558594 C 25.886719 19.765625 25.796875 20.046875 25.824219 20.328125 L 25.996094 22.320312 C 26.027344 22.675781 26.246094 22.988281 26.570312 23.140625 C 26.894531 23.292969 27.273438 23.261719 27.566406 23.054688 C 27.859375 22.851562 28.019531 22.503906 27.988281 22.148438 L 27.816406 20.15625 C 27.777344 19.632812 27.34375 19.226562 26.816406 19.226562 Z M 42.203125 19.699219 C 41.726562 19.726562 41.335938 20.085938 41.269531 20.554688 L 40.960938 22.53125 C 40.890625 22.890625 41.023438 23.261719 41.304688 23.496094 C 41.585938 23.726562 41.972656 23.789062 42.3125 23.652344 C 42.652344 23.515625 42.890625 23.207031 42.9375 22.84375 L 43.246094 20.867188 C 43.296875 20.566406 43.210938 20.257812 43.003906 20.03125 C 42.800781 19.804688 42.507812 19.679688 42.203125 19.699219 Z M 21.695312 19.90625 C 21.394531 19.902344 21.113281 20.035156 20.921875 20.269531 C 20.730469 20.5 20.652344 20.804688 20.710938 21.097656 L 21.066406 23.066406 C 21.132812 23.417969 21.378906 23.710938 21.714844 23.828125 C 22.054688 23.949219 22.429688 23.882812 22.699219 23.648438 C 22.972656 23.417969 23.101562 23.058594 23.035156 22.707031 L 22.675781 20.738281 C 22.597656 20.257812 22.183594 19.90625 21.695312 19.902344 Z M 23 41 C 20.238281 41 18 43.6875 18 47 C 18 50.3125 20.238281 53 23 53 C 25.761719 53 28 50.3125 28 47 C 28 43.6875 25.761719 41 23 41 Z M 41 41 C 38.238281 41 36 43.6875 36 47 C 36 50.3125 38.238281 53 41 53 C 43.761719 53 46 50.3125 46 47 C 46 43.6875 43.761719 41 41 41 Z M 41 41 "/>
</g>
</svg>
